<svg id="visual" viewBox="0 0 960 300" width="960" height="300" xmlns="http://www.w3.org/2000/svg" xmlns:xlink="http://www.w3.org/1999/xlink" version="1.1"><rect x="0" y="0" width="960" height="300" fill="#f2b9f4"></rect><path d="M0 184L22.8 184.5C45.7 185 91.3 186 137 190.3C182.7 194.7 228.3 202.3 274 204C319.7 205.7 365.3 201.3 411.2 203.2C457 205 503 213 548.8 213C594.7 213 640.3 205 686 198.7C731.7 192.3 777.3 187.7 823 185.2C868.7 182.7 914.3 182.3 937.2 182.2L960 182L960 301L937.2 301C914.3 301 868.7 301 823 301C777.3 301 731.7 301 686 301C640.3 301 594.7 301 548.8 301C503 301 457 301 411.2 301C365.3 301 319.7 301 274 301C228.3 301 182.7 301 137 301C91.3 301 45.7 301 22.8 301L0 301Z" fill="#fa69fa"></path><path d="M0 219L22.8 219.7C45.7 220.3 91.3 221.7 137 218.8C182.7 216 228.3 209 274 210.3C319.7 211.7 365.3 221.3 411.2 222.8C457 224.3 503 217.7 548.8 212.5C594.7 207.3 640.3 203.7 686 202.3C731.7 201 777.3 202 823 206.8C868.7 211.7 914.3 220.3 937.2 224.7L960 229L960 301L937.2 301C914.3 301 868.7 301 823 301C777.3 301 731.7 301 686 301C640.3 301 594.7 301 548.8 301C503 301 457 301 411.2 301C365.3 301 319.7 301 274 301C228.3 301 182.7 301 137 301C91.3 301 45.7 301 22.8 301L0 301Z" fill="#db55dc"></path><path d="M0 218L22.8 221.7C45.7 225.3 91.3 232.7 137 233.2C182.7 233.7 228.3 227.3 274 223.7C319.7 220 365.3 219 411.2 222.3C457 225.7 503 233.3 548.8 234.7C594.7 236 640.3 231 686 232.8C731.7 234.7 777.3 243.3 823 247.8C868.7 252.3 914.3 252.7 937.2 252.8L960 253L960 301L937.2 301C914.3 301 868.7 301 823 301C777.3 301 731.7 301 686 301C640.3 301 594.7 301 548.8 301C503 301 457 301 411.2 301C365.3 301 319.7 301 274 301C228.3 301 182.7 301 137 301C91.3 301 45.7 301 22.8 301L0 301Z" fill="#bc41be"></path><path d="M0 256L22.8 254C45.7 252 91.3 248 137 247.5C182.7 247 228.3 250 274 254C319.7 258 365.3 263 411.2 262.3C457 261.7 503 255.3 548.8 250.7C594.7 246 640.3 243 686 242.2C731.7 241.3 777.3 242.7 823 245.2C868.7 247.7 914.3 251.3 937.2 253.2L960 255L960 301L937.2 301C914.3 301 868.7 301 823 301C777.3 301 731.7 301 686 301C640.3 301 594.7 301 548.8 301C503 301 457 301 411.2 301C365.3 301 319.7 301 274 301C228.3 301 182.7 301 137 301C91.3 301 45.7 301 22.8 301L0 301Z" fill="#9f2da1"></path><path d="M0 273L22.8 272.3C45.7 271.7 91.3 270.3 137 268.7C182.7 267 228.3 265 274 267.5C319.7 270 365.3 277 411.2 277.3C457 277.7 503 271.3 548.8 268.2C594.7 265 640.3 265 686 265C731.7 265 777.3 265 823 267.5C868.7 270 914.3 275 937.2 277.5L960 280L960 301L937.2 301C914.3 301 868.7 301 823 301C777.3 301 731.7 301 686 301C640.3 301 594.7 301 548.8 301C503 301 457 301 411.2 301C365.3 301 319.7 301 274 301C228.3 301 182.7 301 137 301C91.3 301 45.7 301 22.8 301L0 301Z" fill="#821985"></path></svg>