<svg id="visual" viewBox="0 0 960 300" width="960" height="300" xmlns="http://www.w3.org/2000/svg" xmlns:xlink="http://www.w3.org/1999/xlink" version="1.1"><path d="M0 34L14.5 32.5C29 31 58 28 87.2 30.5C116.3 33 145.7 41 174.8 46C204 51 233 53 262 52C291 51 320 47 349 43C378 39 407 35 436.2 32.5C465.3 30 494.7 29 523.8 29.5C553 30 582 32 611 34.5C640 37 669 40 698 43C727 46 756 49 785.2 49C814.3 49 843.7 46 872.8 44.5C902 43 931 43 945.5 43L960 43L960 0L945.5 0C931 0 902 0 872.8 0C843.7 0 814.3 0 785.2 0C756 0 727 0 698 0C669 0 640 0 611 0C582 0 553 0 523.8 0C494.7 0 465.3 0 436.2 0C407 0 378 0 349 0C320 0 291 0 262 0C233 0 204 0 174.8 0C145.7 0 116.3 0 87.2 0C58 0 29 0 14.5 0L0 0Z" fill="#bf74ff"></path><path d="M0 61L14.5 63.5C29 66 58 71 87.2 74.5C116.3 78 145.7 80 174.8 83C204 86 233 90 262 89C291 88 320 82 349 77C378 72 407 68 436.2 66.5C465.3 65 494.7 66 523.8 69C553 72 582 77 611 80C640 83 669 84 698 83.5C727 83 756 81 785.2 82C814.3 83 843.7 87 872.8 89C902 91 931 91 945.5 91L960 91L960 41L945.5 41C931 41 902 41 872.8 42.5C843.7 44 814.3 47 785.2 47C756 47 727 44 698 41C669 38 640 35 611 32.5C582 30 553 28 523.8 27.5C494.7 27 465.3 28 436.2 30.5C407 33 378 37 349 41C320 45 291 49 262 50C233 51 204 49 174.8 44C145.7 39 116.3 31 87.2 28.5C58 26 29 29 14.5 30.5L0 32Z" fill="#af51fd"></path><path d="M0 112L14.5 113.5C29 115 58 118 87.2 129.5C116.3 141 145.7 161 174.8 163.5C204 166 233 151 262 146.5C291 142 320 148 349 153.5C378 159 407 164 436.2 161C465.3 158 494.7 147 523.8 143C553 139 582 142 611 148.5C640 155 669 165 698 171.5C727 178 756 181 785.2 186.5C814.3 192 843.7 200 872.8 194.5C902 189 931 170 945.5 160.5L960 151L960 89L945.5 89C931 89 902 89 872.8 87C843.7 85 814.3 81 785.2 80C756 79 727 81 698 81.5C669 82 640 81 611 78C582 75 553 70 523.8 67C494.7 64 465.3 63 436.2 64.5C407 66 378 70 349 75C320 80 291 86 262 87C233 88 204 84 174.8 81C145.7 78 116.3 76 87.2 72.5C58 69 29 64 14.5 61.5L0 59Z" fill="#9e20fa"></path><path d="M0 199L14.5 192C29 185 58 171 87.2 173.5C116.3 176 145.7 195 174.8 201.5C204 208 233 202 262 205.5C291 209 320 222 349 223C378 224 407 213 436.2 203C465.3 193 494.7 184 523.8 183C553 182 582 189 611 195C640 201 669 206 698 215.5C727 225 756 239 785.2 244.5C814.3 250 843.7 247 872.8 239C902 231 931 218 945.5 211.5L960 205L960 149L945.5 158.5C931 168 902 187 872.8 192.5C843.7 198 814.3 190 785.2 184.5C756 179 727 176 698 169.5C669 163 640 153 611 146.5C582 140 553 137 523.8 141C494.7 145 465.3 156 436.2 159C407 162 378 157 349 151.5C320 146 291 140 262 144.5C233 149 204 164 174.8 161.5C145.7 159 116.3 139 87.2 127.5C58 116 29 113 14.5 111.5L0 110Z" fill="#8919d9"></path><path d="M0 301L14.5 301C29 301 58 301 87.2 301C116.3 301 145.7 301 174.8 301C204 301 233 301 262 301C291 301 320 301 349 301C378 301 407 301 436.2 301C465.3 301 494.7 301 523.8 301C553 301 582 301 611 301C640 301 669 301 698 301C727 301 756 301 785.2 301C814.3 301 843.7 301 872.8 301C902 301 931 301 945.5 301L960 301L960 203L945.5 209.5C931 216 902 229 872.8 237C843.7 245 814.3 248 785.2 242.5C756 237 727 223 698 213.5C669 204 640 199 611 193C582 187 553 180 523.8 181C494.7 182 465.3 191 436.2 201C407 211 378 222 349 221C320 220 291 207 262 203.5C233 200 204 206 174.8 199.5C145.7 193 116.3 174 87.2 171.5C58 169 29 183 14.5 190L0 197Z" fill="#7513b9"></path></svg>