<?xml version="1.0" encoding="iso-8859-1"?>
<!-- Generator: Adobe Illustrator 19.0.0, SVG Export Plug-In . SVG Version: 6.00 Build 0)  -->
<svg version="1.1" id="Layer_1" xmlns="http://www.w3.org/2000/svg" xmlns:xlink="http://www.w3.org/1999/xlink" x="0px" y="0px"
	 viewBox="0 0 512 512" style="enable-background:new 0 0 512 512;" xml:space="preserve">
<polygon style="fill:#61A2EF;" points="33.391,330.872 0,330.872 0,219.208 112.78,219.208 112.78,252.6 33.391,252.6 "/>
<polygon style="fill:#528ACF;" points="375.479,453.565 311.299,453.565 311.299,330.872 344.691,330.872 344.691,420.174 
	375.479,420.174 "/>
<polygon style="fill:#61A2EF;" points="200.701,453.565 136.521,453.565 136.521,420.174 167.309,420.174 167.309,330.872 
	200.701,330.872 "/>
<polygon style="fill:#528ACF;" points="512,330.872 478.609,330.872 478.609,252.6 399.22,252.6 399.22,219.208 512,219.208 "/>
<rect x="167.313" y="58.435" style="fill:#D8D9DD;" width="33.391" height="81.43"/>
<rect x="311.296" y="58.435" style="fill:#B7B9C0;" width="33.391" height="81.43"/>
<polygon style="fill:#444242;" points="256,123.169 96.085,123.169 96.085,347.568 256,347.568 415.915,347.568 415.915,123.169 "/>
<rect x="256" y="123.169" style="fill:#3A3839;" width="159.911" height="224.401"/>
<rect x="166.077" y="214.606" style="fill:#EDEEF0;" width="35.873" height="35.873"/>
<rect x="310.061" y="214.606" style="fill:#DCDEE2;" width="35.873" height="35.873"/>
<g>
</g>
<g>
</g>
<g>
</g>
<g>
</g>
<g>
</g>
<g>
</g>
<g>
</g>
<g>
</g>
<g>
</g>
<g>
</g>
<g>
</g>
<g>
</g>
<g>
</g>
<g>
</g>
<g>
</g>
</svg>
