<?xml version="1.0" encoding="iso-8859-1"?>
<!-- Generator: Adobe Illustrator 19.0.0, SVG Export Plug-In . SVG Version: 6.00 Build 0)  -->
<svg version="1.1" id="Layer_1" xmlns="http://www.w3.org/2000/svg" xmlns:xlink="http://www.w3.org/1999/xlink" x="0px" y="0px"
	 viewBox="0 0 512 512" style="enable-background:new 0 0 512 512;" xml:space="preserve">
<rect x="362.213" y="95.319" style="fill:#ABECEC;" width="54.468" height="321.362"/>
<path style="fill:#D5F6F5;" d="M373.106,95.319v321.362H95.319V95.319H373.106z"/>
<g>
	<polygon style="fill:#42C8C6;" points="40.851,40.851 73.532,106.213 438.468,106.213 471.149,40.851 	"/>
	<polygon style="fill:#42C8C6;" points="438.468,405.787 73.532,405.787 40.851,471.149 471.149,471.149 	"/>
</g>
<g>
	<path style="fill:#02ACAB;" d="M291.404,324.085v10.894c0,17.974-14.706,32.681-32.681,32.681h-38.128
		c-17.974,0-32.681-14.706-32.681-32.681v-10.894H291.404z"/>
	<path style="fill:#02ACAB;" d="M291.404,177.021v10.894H187.915v-10.894c0-17.974,14.706-32.681,31.951-32.681h38.128
		C276.698,144.34,291.404,159.047,291.404,177.021z"/>
</g>
<g>
	<path style="fill:#027372;" d="M324.085,324.085v10.894c0,17.974-14.706,32.681-32.681,32.681h-32.681
		c17.974,0,32.681-14.706,32.681-32.681v-10.894H324.085z"/>
	<path style="fill:#027372;" d="M324.085,177.021v10.894h-32.681v-10.894c0-17.974-14.706-32.681-33.411-32.681h32.681
		C309.379,144.34,324.085,159.047,324.085,177.021z"/>
</g>
<rect x="291.404" y="187.915" style="fill:#FFE777;" width="32.681" height="136.17"/>
<rect x="187.915" y="187.915" style="fill:#FFFFFF;" width="103.489" height="136.17"/>
<polygon style="fill:#81E3E2;" points="106.213,106.213 106.213,405.787 40.851,471.149 40.851,40.851 "/>
<polygon style="fill:#027372;" points="471.149,40.851 471.149,471.149 438.468,438.468 416.681,256 438.468,73.532 "/>
<polygon style="fill:#02ACAB;" points="438.468,73.532 438.468,438.468 405.787,405.787 405.787,106.213 "/>
<g>
	<path style="fill:#42C8C6;" d="M283.234,247.83H264.17v-19.064c0-4.512-3.658-8.17-8.17-8.17s-8.17,3.658-8.17,8.17v19.064h-19.064
		c-4.512,0-8.17,3.658-8.17,8.17s3.658,8.17,8.17,8.17h19.064v19.064c0,4.512,3.658,8.17,8.17,8.17s8.17-3.658,8.17-8.17V264.17
		h19.064c4.512,0,8.17-3.658,8.17-8.17S287.746,247.83,283.234,247.83z"/>
	<path style="fill:#42C8C6;" d="M8.17,70.809c-4.512,0-8.17-3.658-8.17-8.17V8.17C0,3.658,3.658,0,8.17,0h54.468
		c4.512,0,8.17,3.658,8.17,8.17s-3.658,8.17-8.17,8.17H16.34v46.298C16.34,67.15,12.682,70.809,8.17,70.809z"/>
	<path style="fill:#42C8C6;" d="M62.638,512H8.17C3.658,512,0,508.342,0,503.83v-54.468c0-4.512,3.658-8.17,8.17-8.17
		s8.17,3.658,8.17,8.17v46.298h46.298c4.512,0,8.17,3.658,8.17,8.17S67.15,512,62.638,512z"/>
	<path style="fill:#42C8C6;" d="M503.83,512h-54.468c-4.512,0-8.17-3.658-8.17-8.17s3.658-8.17,8.17-8.17h46.298v-46.298
		c0-4.512,3.658-8.17,8.17-8.17s8.17,3.658,8.17,8.17v54.468C512,508.342,508.342,512,503.83,512z"/>
	<path style="fill:#42C8C6;" d="M503.83,70.809c-4.512,0-8.17-3.658-8.17-8.17V16.34h-46.298c-4.512,0-8.17-3.658-8.17-8.17
		S444.85,0,449.362,0h54.468c4.512,0,8.17,3.658,8.17,8.17v54.468C512,67.15,508.342,70.809,503.83,70.809z"/>
</g>
<g>
</g>
<g>
</g>
<g>
</g>
<g>
</g>
<g>
</g>
<g>
</g>
<g>
</g>
<g>
</g>
<g>
</g>
<g>
</g>
<g>
</g>
<g>
</g>
<g>
</g>
<g>
</g>
<g>
</g>
</svg>
